<svg xmlns="http://www.w3.org/2000/svg" viewBox="0 0 1200 900" fill="none">
  <rect width="1200" height="900" fill="#F7EBDD"/>
  <rect width="1200" height="900" fill="url(#wash)"/>
  <rect y="520" width="1200" height="380" fill="#D7A67E"/>
  <rect y="560" width="1200" height="340" fill="#C68A62"/>
  <ellipse cx="470" cy="560" rx="228" ry="110" fill="#FFF8EF"/>
  <ellipse cx="470" cy="560" rx="188" ry="80" fill="#F2E7D6"/>
  <circle cx="470" cy="560" r="44" fill="#F5D493"/>
  <circle cx="470" cy="560" r="18" fill="#C58D35"/>
  <rect x="720" y="456" width="124" height="160" rx="24" fill="#FFF9F0"/>
  <rect x="750" y="410" width="64" height="70" rx="18" fill="#E0B06E"/>
  <rect x="792" y="330" width="10" height="86" rx="5" fill="#7D5A43"/>
  <rect x="270" y="404" width="132" height="170" rx="66" fill="#7D5540"/>
  <rect x="300" y="348" width="72" height="74" rx="30" fill="#7D5540"/>
  <circle cx="862" cy="214" r="126" fill="#F5C670" opacity=".46"/>
  <path d="M1030 178c-84 16-162 88-196 210" stroke="#6B845E" stroke-width="20" stroke-linecap="round" opacity=".45"/>
  <path d="M121 260c88 20 174 96 214 214" stroke="#6B845E" stroke-width="18" stroke-linecap="round" opacity=".38"/>
  <defs>
    <linearGradient id="wash" x1="600" x2="600" y1="0" y2="900" gradientUnits="userSpaceOnUse">
      <stop stop-color="#F8F1E7"/>
      <stop offset=".54" stop-color="#EEDAC2"/>
      <stop offset="1" stop-color="#D5A57E"/>
    </linearGradient>
  </defs>
</svg>
