<svg xmlns="http://www.w3.org/2000/svg" viewBox="0 0 900 1100" fill="none">
  <rect width="900" height="1100" fill="#F5EBDE"/>
  <rect width="900" height="1100" fill="url(#bg)"/>
  <circle cx="450" cy="330" r="164" fill="#DDA97C"/>
  <path d="M284 368c0-116 88-198 166-198 100 0 166 82 166 198v18H284v-18Z" fill="#453328"/>
  <rect x="304" y="478" width="292" height="390" rx="144" fill="#6F855C"/>
  <rect x="352" y="584" width="196" height="258" rx="98" fill="#E5BB94"/>
  <path d="M352 448c56 46 140 46 196 0" stroke="#5A4134" stroke-width="12" stroke-linecap="round"/>
  <circle cx="382" cy="334" r="22" fill="#E5BB94"/>
  <circle cx="518" cy="334" r="22" fill="#E5BB94"/>
  <path d="M390 414c34 28 86 28 120 0" stroke="#7F513C" stroke-width="12" stroke-linecap="round"/>
  <defs>
    <linearGradient id="bg" x1="450" x2="450" y1="0" y2="1100" gradientUnits="userSpaceOnUse">
      <stop stop-color="#F8F1E8"/>
      <stop offset=".55" stop-color="#E8D6BF"/>
      <stop offset="1" stop-color="#B8C29A"/>
    </linearGradient>
  </defs>
</svg>
