<svg xmlns="http://www.w3.org/2000/svg" viewBox="0 0 900 900" fill="none">
  <rect width="900" height="900" fill="#F7F0E3"/>
  <rect width="900" height="900" fill="url(#bg)"/>
  <circle cx="702" cy="178" r="108" fill="#F7CB7D" opacity=".48"/>
  <path d="M160 900c40-204 94-358 164-462" stroke="#6E8962" stroke-width="34" stroke-linecap="round"/>
  <path d="M356 900c30-188 70-326 122-414" stroke="#7E9A6C" stroke-width="26" stroke-linecap="round"/>
  <path d="M522 900c30-160 72-276 128-350" stroke="#6F855C" stroke-width="22" stroke-linecap="round"/>
  <path d="M264 350c48-54 104-82 170-82M462 418c68-56 140-84 218-84M186 520c68-52 142-76 222-76" stroke="#7EA06F" stroke-width="18" stroke-linecap="round" opacity=".52"/>
  <circle cx="304" cy="316" r="24" fill="#F8F0E5"/>
  <circle cx="514" cy="388" r="26" fill="#F8F0E5"/>
  <circle cx="672" cy="304" r="24" fill="#F8F0E5"/>
  <circle cx="398" cy="534" r="28" fill="#F8F0E5"/>
  <defs>
    <linearGradient id="bg" x1="450" x2="450" y1="0" y2="900" gradientUnits="userSpaceOnUse">
      <stop stop-color="#F8F2E7"/>
      <stop offset=".54" stop-color="#E6D8BF"/>
      <stop offset="1" stop-color="#C0CFB0"/>
    </linearGradient>
  </defs>
</svg>
