<svg xmlns="http://www.w3.org/2000/svg" viewBox="0 0 1200 1400" fill="none">
  <rect width="1200" height="1400" fill="#F5EBDC"/>
  <rect width="1200" height="1400" fill="url(#bg)"/>
  <rect x="120" y="280" width="960" height="930" rx="42" fill="#F7F1E8"/>
  <rect x="192" y="360" width="816" height="760" rx="28" fill="#D6B08C"/>
  <rect x="240" y="360" width="84" height="760" fill="#B68561"/>
  <rect x="876" y="360" width="84" height="760" fill="#B68561"/>
  <rect x="400" y="360" width="64" height="760" fill="#B68561"/>
  <rect x="736" y="360" width="64" height="760" fill="#B68561"/>
  <ellipse cx="600" cy="1130" rx="352" ry="86" fill="#9E7558"/>
  <circle cx="860" cy="250" r="116" fill="#F5C678" opacity=".52"/>
  <circle cx="430" cy="820" r="110" fill="#7D5842"/>
  <circle cx="760" cy="790" r="110" fill="#8B634A"/>
  <circle cx="594" cy="860" r="118" fill="#A57355"/>
  <rect x="360" y="910" width="140" height="158" rx="68" fill="#E9C49C"/>
  <rect x="690" y="876" width="140" height="158" rx="68" fill="#EBC9A2"/>
  <rect x="524" y="948" width="146" height="166" rx="72" fill="#F1D2AA"/>
  <path d="M178 1118c64-190 140-314 228-372M1024 1110c-58-168-130-284-214-346" stroke="#64815A" stroke-width="20" stroke-linecap="round" opacity=".48"/>
  <defs>
    <linearGradient id="bg" x1="600" x2="600" y1="0" y2="1400" gradientUnits="userSpaceOnUse">
      <stop stop-color="#F8EFD9"/>
      <stop offset=".55" stop-color="#F0DFC3"/>
      <stop offset="1" stop-color="#D4B089"/>
    </linearGradient>
  </defs>
</svg>
